<?xml version="1.0" encoding="UTF-8"?>
<svg height="62pt" viewBox="0 0 320 62" width="320pt" xmlns="http://www.w3.org/2000/svg">
 <g id="CNews_logo">
  <path d="m33.0898 0h3.04297c3.66406.29688 7.59375.51563 10.7305 2.64062 1.78516 1.16406 2.69531 3.54297 1.93359 5.5625-1.00391 2.78516-3.94141 5.12109-7.00781 4.5625-1.73047-.48438-3.17578-1.60938-4.54687-2.72266-2.23047-1.82422-4.38281-3.82031-7.03125-5.03906-2.07813-1.03125-4.51953-.97266-6.73828-.49219-3.95703.94531-7.08203 3.94922-9.08594 7.37891-2.47266 4.34375-3.75781 9.36719-3.64062 14.3633-.00781 6.03516 1.6875 12.1328 5.12109 17.125 3.46875 5.04688 8.83203 8.84766 14.8594 10.0938 4.26953.97266 8.89063.74219 12.9023-1.08203 1.77734-.78125 3.4375-1.80859 5.01562-2.93359.83984.49219 1.69531.95313 2.58984 1.33594-4.01172 4.54688-9.21094 8.11328-15.043 9.87109-6.12109 1.83203-12.8945 1.72656-18.8398-.70312-6.48828-2.60938-11.7148-7.94141-14.5508-14.2891-1.72656-3.69531-2.54297-7.75-2.80078-11.8086v-2.72656c.26563-3.77734 1.03906-7.54297 2.58984-11.0117 2.71094-6.23438 7.50781-11.4727 13.3242-14.9609 5.16406-3.16016 11.1445-4.85156 17.1758-5.16406z"/>
  <path d="m96.6055 0h.03516c.49609.17188.98047.35547 1.47266.53125-.375 3.25781-.67578 6.52734-1.06641 9.78516 5.60938-4.07812 11.5039-8.22266 18.3984-9.72656 1.31641-.30859 2.66016-.44141 4-.58984h2.44141c2.56641.21875 5.19141.60156 7.49219 1.82812 2.72266 1.32812 4.85156 3.70312 6.05859 6.45703 1.76172 3.89453 2.05859 8.24609 2.08984 12.4609 0 8.42188.00391 16.8398 0 25.2617-.01563 1.75781.02344 3.52344.19141 5.27344.23047 1.42969.41016 2.96875 1.35156 4.13281.87109 1.13281 2.22656 1.75781 3.57031 2.125 1.75.47266 3.53125.83594 5.33203 1.01953.03516.67578.04297 1.35156.04297 2.02734h-31.2891c.01953-.66406-.08984-1.35547.08594-2.00781 2.68359-.46484 5.59766-.75 7.87109-2.39062 2.15234-1.69531 2.26172-4.65625 2.46094-7.16406.12891-5.92188.04688-11.8516.07031-17.7773-.03516-4.00781.16016-8.04688-.55469-12.0117-.54688-3.01562-1.60938-6.09375-3.83984-8.29297-2.94531-3.08203-7.44141-4.03906-11.5625-3.92578-2.13281-.08203-4.27344.25-6.28906.94922-2.70312.98438-5.08984 2.67578-7.1875 4.61719-.29688.21484-.16797.60938-.20313.91406.02344 11.75-.01172 23.5.01563 35.2539.12891 1.98047.17188 4.04297 1.02734 5.87109.73047 1.51562 2.30078 2.39844 3.85547 2.85547 1.82031.51172 3.68359.88672 5.56641 1.08984.00781.67188.00781 1.34766.00781 2.01953-10.4219 0-20.8516 0-31.2773.00391.02344-.67578.02734-1.35156.04297-2.02734 1.875-.20313 3.73438-.59375 5.54297-1.14844 1.69922-.53906 3.32422-1.63672 3.98047-3.35937 1.03516-2.90625.81641-6.03906.94141-9.07031v-26.7383c-.03516-1.76953-.01563-3.60938-.80469-5.23828-1.24609-2.47656-3.58984-4.13672-5.75781-5.75391-.00391-.44922-.00781-.89453-.01563-1.33984 5.29297-1.99219 10.6133-3.91016 15.9023-5.91406z"/>
  <path d="m172.621 0h2.73828c1.6875.17969 3.38281.35156 5.01953.80859 4.41016 1.10547 8.41406 3.84766 10.8828 7.67969 2.17188 3.30469 3.17969 7.25391 3.36719 11.1758-12.9414-.01953-25.8828.01172-38.8203-.01562-.28516 2.18359-.40234 4.39062-.54688 6.58984-.58984 6.28125 1.125 12.7969 4.90234 17.875 3.35156 4.58984 8.48828 7.82031 14.0781 8.83984 3.67578.64453 7.55859.62109 11.0977-.67188 3.8125-1.34375 6.91406-4.16797 9.28906-7.375.67969.49219 1.35938.98828 2.03125 1.5-3.55469 5.99219-8.87109 11.0625-15.3828 13.6875-8.71094 3.55469-19.2344 1.79688-26.5117-4.10156-3.9375-3.12109-6.91406-7.375-8.73438-12.043-2.03516-5.10547-2.58203-10.7383-1.91797-16.1719.99609-9.01172 5.76172-17.7305 13.3477-22.8359 4.44531-3.07422 9.79297-4.64062 15.1602-4.94141m-4.98828 3.17188c-3.76953.72656-6.76172 3.57812-8.65625 6.79297-1.27734 2.24609-2.375 4.67188-2.74609 7.24219 2.95312-.31641 5.92578-.18359 8.88281-.42578 5.61328-.20313 11.2227-.4375 16.832-.71484-.90625-3.9375-2.46875-7.96094-5.58984-10.6758-2.34375-2.07031-5.67188-2.91406-8.72266-2.21875z"/>
  <path d="m300.109 0h2.28125c4.8125.3125 9.70703 1.62109 13.6602 4.44922.15234 3.95312.23828 7.91797.44922 11.8711-.98828.20703-1.98828.36719-2.97656.57422-1.21875-3.99609-2.69922-8.16016-5.79297-11.1133-3.28516-3.13281-8.97656-3.52734-12.4766-.54688-2.20312 1.90234-3.18359 4.92188-3.00781 7.77734-.02344 3.05078 1.87109 5.72656 4.11719 7.62891 3.73828 3.11719 8.25391 5.05859 12.4219 7.51562 3.37891 1.99219 6.78125 4.25781 8.97656 7.59375 1.88672 2.83594 2.51562 6.38672 2.04688 9.73828-.42578 3.92578-2.40625 7.60938-5.30859 10.2656-4.30078 4-10.2031 5.96484-16.0078 6.16406-6.01563.14453-12.168-1.39453-17.1094-4.91016-.31641-3.53906-.46875-7.08984-.80469-10.6289-.17188-1.41016-.0625-2.84766-.34375-4.25 1.05859-.21875 2.12109-.46484 3.20703-.51563.93359 4.66016 2.88281 9.25391 6.17188 12.75 2.49219 2.58203 6.03906 4.16016 9.64844 4.08594 2.69141.07031 5.42188-.94531 7.33984-2.84766 3.73828-3.71484 4.125-10.3438.70313-14.3867-1.94531-2.37891-4.64453-3.98047-7.32031-5.41406-4.23438-2.28906-8.78125-4.14844-12.4844-7.29297-2.46875-2.03906-4.38672-4.80859-5.13281-7.94531-.8125-3.53125-.60938-7.38672 1.00391-10.6719 1.51172-3.14453 4.16016-5.63281 7.21484-7.26562 2.92187-1.59375 6.21484-2.37891 9.52344-2.625z"/>
  <path d="m188.312 1.3125c9.43359.01563 18.8711.01563 28.3086 0-.01172.66797-.01172 1.33594-.00391 2.00391-1.75781.11328-3.57813.18359-5.22656.88281-1.06641.37891-2.00391 1.21094-2.29688 2.33203-.22266 1.27734-.04297 2.59766.36719 3.82031.90234 2.80469 2.0625 5.51563 3.11719 8.26172 3.69531 9.48438 7.45703 18.9375 11.1172 28.4336 4.20313-9.74609 8.28516-19.5547 12.4453-29.3203.28125-.60937-.13672-1.21484-.32422-1.78125-1.31641-3.12109-2.21484-6.49609-4.24609-9.25781-1.71875-2.33594-4.76562-2.89844-7.44531-3.37109.00781-.66797.00781-1.33203.01172-2 9.54688 0 19.1016.03125 28.6523-.01563 0 .66797 0 1.33984.00391 2.01172-2.0625.15625-4.1875.29688-6.08984 1.19141-1.22266.58594-2.19141 1.83203-2.125 3.23438.05469 1.85156.8125 3.58984 1.44531 5.30078 4.23437 11.3398 8.57812 22.6367 12.7656 33.9883 1.74219-3.56641 3.27734-7.23047 4.90625-10.8516 2.70313-6.19922 5.36719-12.4258 7.63281-18.8008.90625-2.75 1.85156-5.51562 2.23047-8.39453.24609-1.54688-.20703-3.32812-1.55859-4.24219-1.75-1.11719-3.88672-1.11719-5.86719-1.41406.00781-.67188.00391-1.33984 0-2.01172 7.54688.02734 15.0938-.00781 22.6406.01563-.00781.65625-.00781 1.3125-.00391 1.96875-2.27344.23438-4.59375.83984-6.39453 2.31641-2.79688 2.22266-4.21094 5.60547-5.69141 8.75-7.14453 15.8594-14.207 31.7578-21.3672 47.6055-.57031-.01563-1.13672-.00781-1.70312.03125h-.10938c-5.3125-13.6016-10.6602-27.1914-15.9531-40.8008-5.66016 13.5742-11.1914 27.207-16.8086 40.8008h-.10156c-.625-.04688-1.25-.05469-1.875-.04688-6.69531-16.6094-13.375-33.2227-20.1055-49.8203-.98828-2.29687-2.00391-4.70312-3.89453-6.42187-1.75-1.61328-4.14844-2.23047-6.46484-2.41016.01172-.66406.01172-1.32422.01172-1.98828z"/>
  <path d="m48.9609 18.2383c2.63672-2.16406 5.86719-3.64453 9.28516-3.94922 4.95703-.54687 10.1094 1.3125 13.6055 4.86328 3.08984 3.10547 4.89844 7.45703 4.83594 11.8477.03906 3.78125-1.30469 7.55078-3.68359 10.4844-2.52734 3.15625-6.23828 5.35938-10.2305 6.00391-3.95703.65625-8.16016-.07422-11.5742-2.20703-4.31641-2.60547-7.33594-7.25781-7.88281-12.2695-.63281-4.66016.89453-9.49609 3.94531-13.0508-.91797 1.46484-1.43359 3.17969-1.19922 4.91797.32422 3.02734 2.88672 5.64844 5.90234 6.04688 3.56641.62109 7.23438-1.99609 7.87891-5.53516.28516-1.59375.08594-3.30859-.73047-4.72656-1.22656-2.26953-3.78516-3.77344-6.37891-3.61328-1.35938-.01953-2.60547.5625-3.77344 1.1875z" fill="#005da3"/>
 </g>
</svg>
