<svg width="488" height="192" viewBox="0 0 488 192" fill="none" xmlns="http://www.w3.org/2000/svg">
<path d="M406.305 95.5572L420 125.138H410.04L398.163 99.9768H382.589V125.237H372.903L372.828 67.6078H382.514V91.1625H398.101L409.144 67.6078H419.104L406.305 95.5572ZM326.429 99.9768V117.244L359.196 117.17V125.25L316.743 125.337L316.606 67.7198L358.076 67.6078L353.507 76.4719L326.429 76.5342V91.3866L351.527 91.3243L346.983 99.9768H326.429ZM258.13 76.447V67.8941L306.198 67.7821L301.753 76.3225H286.303L286.415 125.387H276.73L276.618 76.3101H258.13V76.447ZM235.609 53.9132L231.027 62.4537H207.373L211.88 53.9132H235.609ZM206.763 113.783L230.927 67.9439H244.622L244.759 125.573H235.559L235.484 79.8084H233.99L233.517 80.6799L209.863 125.611H196.168L196.031 67.9813H205.231L205.356 112.887V113.783H206.763ZM146.507 100.587H164.583L157.188 77.5675H153.715L146.507 100.587ZM147.888 68.1431H163.388L182.722 125.685H172.763L167.434 109.177H143.78L138.576 125.735H128.89L147.888 68.1431ZM117.984 68.2054L103.12 96.0926L119.304 125.835H109.183L95.1393 100.4H92.4004L78.8926 125.922L68.41 125.947L84.5945 96.242L69.5678 68.305H79.6146L92.4253 91.9593H95.1642L107.738 68.305L117.984 68.2054Z" fill="#DB3A2F"/>
</svg>
