<svg width="488" height="192" viewBox="0 0 488 192" fill="none" xmlns="http://www.w3.org/2000/svg">
<path d="M98.3685 119.835V81.7496H92.2665V75.1143H106.331V119.838L98.3685 119.835ZM102.727 58.2594C104.092 58.2594 105.254 58.7422 106.214 59.7021C107.176 60.6648 107.659 61.8156 107.659 63.1489C107.659 64.513 107.179 65.675 106.214 66.6406C105.761 67.1055 105.219 67.4731 104.619 67.7207C104.02 67.9683 103.376 68.0908 102.727 68.0804C101.389 68.0804 100.241 67.6005 99.2779 66.6406C98.3152 65.6778 97.838 64.513 97.838 63.1489C97.838 61.7848 98.3068 60.6284 99.2555 59.6796C100.201 58.7338 101.361 58.2594 102.727 58.2594ZM121.777 80.5539H116.602V74.3172H121.777V65.0098L129.74 61.9756V74.3172H141.95V80.5539H129.74V102.792C129.74 106.556 130.369 109.231 131.626 110.82C132.887 112.406 134.91 113.203 137.706 113.203C139.727 113.203 141.812 112.672 143.974 111.611L145.136 118.583C141.86 119.417 138.265 119.835 134.352 119.835C130.829 119.835 127.851 118.522 125.421 115.892C122.99 113.262 121.777 109.944 121.777 105.933V80.5539Z" fill="#231F20" stroke="#231F20" stroke-width="1.135"/>
<path d="M221.627 119.835H219.505L206.431 89.446L193.363 119.835H191.238L175.309 74.1854H183.803L193.29 103.514L205.168 74.1854H207.296L219.57 103.514L229.854 74.1854H237.682L221.627 119.835ZM245.71 96.5753C245.71 89.6818 247.562 84.1187 251.284 79.8776C255 75.6421 259.895 73.5201 265.964 73.5201C272.366 73.5201 277.34 75.5579 280.879 79.6278C284.416 83.7005 286.181 89.3506 286.181 96.5753C286.181 103.775 284.371 109.45 280.753 113.604C277.135 117.761 272.2 119.838 265.961 119.838C259.587 119.838 254.613 117.739 251.048 113.543C247.484 109.346 245.71 103.691 245.71 96.5753ZM254.071 96.5753C254.071 107.746 258.034 113.338 265.966 113.338C269.671 113.338 272.574 111.839 274.673 108.841C276.778 105.849 277.825 101.76 277.825 96.5753C277.825 85.5389 273.873 80.0263 265.966 80.0263C262.354 80.0263 259.466 81.4943 257.305 84.433C255.146 87.3746 254.071 91.4192 254.071 96.5753ZM320.343 82.7461C318.622 81.5504 316.89 80.9498 315.145 80.9498C312.338 80.9498 309.893 82.2493 307.799 84.8428C305.705 87.4391 304.653 90.5603 304.653 94.2148V119.835H296.693V75.1144H304.653V82.2802C307.541 76.9697 311.83 74.3173 317.514 74.3173C318.928 74.3173 320.966 74.5643 323.632 75.0639L320.343 82.7461ZM333.369 106.36V56.0028H341.329V105.077C341.329 107.471 342.014 109.358 343.384 110.736C344.748 112.114 346.547 112.804 348.762 112.804V119.835C338.5 119.835 333.369 115.345 333.369 106.36ZM387.325 119.044V115.743C384.574 118.474 380.577 119.835 375.326 119.835C369.746 119.835 365.215 117.834 361.752 113.829C358.277 109.821 356.54 104.479 356.54 97.8047C356.54 91.102 358.541 85.3761 362.538 80.6354C366.54 75.8947 371.303 73.5201 376.83 73.5201C381.442 73.5201 384.939 74.6064 387.328 76.7704V56H395.288V119.038L387.325 119.044ZM387.325 84.6688C385.323 81.6627 382.598 80.1583 379.129 80.1583C374.879 80.1583 371.449 81.7441 368.828 84.9186C366.206 88.0959 364.898 92.1293 364.898 97.0328C364.898 107.811 369.782 113.2 379.547 113.2C380.79 113.2 382.295 112.804 384.044 112.01C385.787 111.218 386.884 110.374 387.328 109.484L387.325 84.6688Z" fill="#231F20" stroke="#231F20" stroke-width="0.756"/>
<path d="M161.94 91.7218C164.413 91.7218 166.546 92.5807 168.292 94.349C170.057 96.092 170.916 98.1999 170.916 100.645C170.916 103.12 170.057 105.248 168.292 106.994C166.543 108.765 164.413 109.624 161.94 109.624C159.498 109.624 157.387 108.765 155.644 106.994C154.797 106.17 154.126 105.183 153.674 104.091C153.222 102.999 152.997 101.826 153.014 100.645C153.014 98.1494 153.876 96.0415 155.616 94.2957C157.34 92.5807 159.445 91.7218 161.94 91.7218Z" fill="#ED1B24"/>
</svg>
