<svg width="488" height="192" viewBox="0 0 488 192" fill="none" xmlns="http://www.w3.org/2000/svg">
<path d="M155.465 94.1723H147.804V82.2082H155.465C158.043 82.2082 159.867 83.2176 160.937 85.2361C162.007 87.2054 162.007 89.1995 160.937 91.218C159.867 93.1874 158.043 94.1723 155.465 94.1723Z" fill="#AD475C"/>
<path d="M202.854 90.3319H195.265V81.0266H202.854C204.897 81.0266 206.331 81.8144 207.158 83.3897C207.985 84.9162 207.961 86.467 207.086 88.0424C206.259 89.5688 204.848 90.3319 202.854 90.3319Z" fill="#AD475C"/>
<path d="M202.854 110.567H195.265V99.8587H202.854C205.286 99.8587 207.013 100.745 208.034 102.517C209.056 104.29 209.056 106.087 208.034 107.909C207.061 109.681 205.334 110.567 202.854 110.567Z" fill="#AD475C"/>
<path d="M267.439 94.1723H259.778V82.2082H267.439C270.017 82.2082 271.841 83.2176 272.911 85.2361C273.981 87.2054 273.981 89.1995 272.911 91.218C271.841 93.1874 270.017 94.1723 267.439 94.1723Z" fill="#AD475C"/>
<path fill-rule="evenodd" clip-rule="evenodd" d="M373.727 51.1811C374.137 50.3153 374.559 49.4249 375 48.4999H113.222V143.5H374.964C374.733 142.987 374.528 142.519 374.336 142.083C374.005 141.327 373.715 140.665 373.397 140.02C371.869 136.942 370.343 133.861 368.818 130.781C363.739 120.524 358.66 110.267 353.466 100.067C351.981 97.1502 352.029 94.7434 353.497 91.8687C358.109 82.8306 362.618 73.7404 367.128 64.6491C368.458 61.9671 369.789 59.2849 371.122 56.6039C371.993 54.846 372.833 53.0725 373.727 51.1811ZM150.139 105.545L162.104 122.162H178.375L164.293 104.216C171.055 102.05 174.435 96.3385 174.435 87.0824C174.289 81.2235 172.465 76.891 168.963 74.0845C165.51 71.2782 160.937 69.875 155.246 69.875H134.597V122.162H147.804V105.545H150.139ZM218.176 90.4796C219.1 88.8057 219.587 87.2548 219.635 85.827C219.781 80.9527 218.273 77.0879 215.112 74.2322C211.998 71.3274 207.913 69.875 202.854 69.875H182.132V122.162H203.219C214.066 122.162 220.195 117.657 221.605 108.647C222.043 106.136 221.727 103.527 220.657 100.819C219.587 98.111 217.471 95.9445 214.309 94.3198C216.012 93.4336 217.3 92.1535 218.176 90.4796ZM225.761 115.22C225.761 113.201 226.467 111.478 227.877 110.05C229.288 108.623 230.991 107.909 232.985 107.909C234.979 107.909 236.682 108.623 238.092 110.05C239.551 111.478 240.281 113.201 240.281 115.22C240.281 117.288 239.551 119.06 238.092 120.537C236.682 121.965 234.979 122.679 232.985 122.679C230.991 122.679 229.288 121.965 227.877 120.537C226.467 119.06 225.761 117.288 225.761 115.22ZM262.113 105.545L274.079 122.162H290.35L276.268 104.216C283.029 102.05 286.41 96.3385 286.41 87.0824C286.264 81.2235 284.44 76.891 280.937 74.0845C277.484 71.2782 272.911 69.875 267.22 69.875H246.572V122.162H259.778V105.545H262.113ZM307.021 69.875V104.659C307.021 106.235 307.532 107.588 308.553 108.721C309.575 109.804 310.791 110.469 312.201 110.715C313.66 110.961 315.12 110.961 316.579 110.715C318.038 110.469 319.279 109.804 320.3 108.721C321.322 107.588 321.832 106.235 321.832 104.659V69.875H335.039V104.659C335.039 107.318 334.552 109.755 333.579 111.97C332.655 114.137 331.391 115.934 329.785 117.362C328.18 118.789 326.332 120.02 324.24 121.054C322.197 122.039 320.033 122.63 317.746 122.826C315.509 123.023 313.247 123.023 310.961 122.826C308.675 122.63 306.486 122.039 304.394 121.054C302.351 120.02 300.527 118.789 298.922 117.362C297.365 115.934 296.125 114.137 295.201 111.97C294.276 109.755 293.814 107.318 293.814 104.659V69.875H307.021Z" fill="#AD475C"/>
</svg>
