<svg width="488" height="192" viewBox="0 0 488 192" fill="none" xmlns="http://www.w3.org/2000/svg">
<path d="M125 62.0767V128.841H191.708V62.0767H125ZM150.622 113.946L176.844 87.7122V113.946H150.622ZM139.865 103.641V76.9716H166.522L139.865 103.641Z" fill="black"/>
<path d="M211.502 62.0767H236.942C255.259 62.0767 263.782 70.2044 263.782 84.3921V84.7729C263.782 98.7788 254.332 106.344 237.796 106.344H230.6V128.841H211.52V62.0767H211.502ZM236.088 93.2636C242.267 93.2636 245.537 90.3608 245.537 84.8635V84.4827C245.537 78.786 242.176 76.4638 236.179 76.4638H230.564V93.2636H236.088Z" fill="black"/>
<path d="M272.36 80.0036H289.096V89.7098C292.185 82.4346 297.327 79.2599 304.905 79.3504V94.9347C294.711 94.6627 289.096 97.8375 289.096 105.675V128.825H272.36V80.0036Z" fill="black"/>
<path d="M310.229 105.021V104.277C310.229 88.6382 321.769 78.7684 336.706 78.7684C351.552 78.7684 363 88.3479 363 103.805V104.549C363 120.369 351.461 129.876 336.615 129.876C321.769 129.876 310.229 120.75 310.229 105.021ZM346.21 104.73V103.987C346.21 95.7863 342.975 91.2324 336.706 91.2324C330.527 91.2324 327.111 95.6048 327.111 103.805V104.549C327.111 112.931 330.346 117.485 336.706 117.485C342.884 117.485 346.21 112.84 346.21 104.73Z" fill="black"/>
</svg>
