<svg width="488" height="192" viewBox="0 0 488 192" fill="none" xmlns="http://www.w3.org/2000/svg">
<path d="M288.113 92.4636H321.198V82.246H298.835V73.9669H318.832V63.6754H298.835V55.7942H333.298V92.4636H344.021V55.7968H360V45.5792H288.113V92.4636ZM173.215 92.4636H206.235V82.246H183.935V73.9669H203.931V63.6754H183.935V55.7942H206.235V45.5818H173.215V92.4636ZM208.076 92.4636H218.796V67.7589L235.566 92.4661H249.505L231.822 67.1518L249.507 45.5792H235.5L218.796 67.6211V45.5792H208.076V92.4636ZM333.166 99.8806H344.018V146.834H333.166V99.8806Z" fill="black"/>
<path fill-rule="evenodd" clip-rule="evenodd" d="M162.166 99.8145V92.3669C166.02 91.5403 169.571 89.6676 172.429 86.9546L166.512 78.5378C163.402 81.353 159.325 82.8604 155.132 82.7462C145.789 82.7462 140.134 76.7881 140.134 68.3228C140.134 60.8751 145.789 55.1619 154.142 55.1619C158.494 55.1721 162.688 56.7909 165.918 59.707L172.368 51.7901C167.151 47.2635 160.452 44.8133 153.545 44.9061C137.964 44.9087 128.69 56.2663 128.69 69.1568C128.69 83.1798 138.487 92.6653 151.377 93.4024V99.8145C138.288 99.8808 128.69 108.43 128.69 121.119C128.69 133.944 138.165 142.462 151.377 142.462V147.206H162.166V142.462C175.781 142.462 184.983 133.847 184.983 121.158C184.991 107.961 175.454 99.8808 162.166 99.8145ZM151.377 132.411C143.093 132.477 140.129 126.399 140.129 121.119C140.137 116.176 142.624 109.698 151.377 109.698V132.411ZM162.166 109.698V132.411C170.328 132.469 173.48 126.595 173.48 121.119C173.48 116.176 170.914 109.698 162.166 109.698ZM307.744 114.508C309.402 114.304 311.073 114.218 312.743 114.24C325.539 114.24 331.656 120.515 331.663 130.153C331.663 140.771 324.726 147.051 309.665 147.051C307.777 147.051 305.727 146.995 303.77 146.944C302.118 146.891 300.465 146.86 298.812 146.849H297.029V117.86L283.677 134.755H282.101L268.746 117.793V146.834H257.99V99.8808H268.843L283.708 118.984L297.552 99.8808H307.744V114.508ZM307.752 136.545C309.081 136.708 310.422 136.775 311.761 136.744H311.792C317.189 136.744 320.209 134.742 320.181 130.385C320.181 126.363 316.896 124.427 311.894 124.427C310.51 124.405 309.127 124.473 307.752 124.629V136.545ZM230.1 99.812C232.268 99.7788 234.385 99.7482 235.898 99.7482C251.413 99.7482 256.481 107.359 256.488 116.378C256.488 126.325 249.512 133.273 236.16 133.273C234.584 133.273 233.329 133.273 231.291 133.14V146.837H220.571V117.316L196.035 146.834H186.621V99.8808H197.356V129.401L221.816 99.8808H223.729C225.481 99.8808 227.82 99.8477 230.1 99.812ZM231.291 122.655C233.012 122.91 234.75 123.022 236.489 122.989H236.482C241.682 122.989 245.034 120.867 245.041 116.378C245.041 112.169 242.473 110.032 235.831 110.032C235.048 110.032 234.37 110.065 233.676 110.096C232.882 110.139 232.087 110.162 231.291 110.165V122.655ZM266.285 78.905C264.678 78.9076 263.076 78.8183 261.48 78.6372V92.4944H250.76V45.5795C253.555 45.5131 260.63 45.378 266.02 45.378C281.604 45.378 286.669 51.8564 286.669 62.0076C286.669 71.8885 279.703 78.905 266.285 78.905ZM261.926 55.7613L261.48 55.797L261.495 68.2182C263.102 68.5243 264.734 68.6569 266.366 68.6186C271.871 68.6186 275.166 66.4813 275.166 62.0076C275.166 57.5314 272.156 55.5955 265.558 55.5955C264.104 55.5955 262.842 55.6924 261.926 55.7613Z" fill="black"/>
</svg>
