<svg xmlns="http://www.w3.org/2000/svg" width="130" height="80" viewBox="0 0 130 80" fill="none">
  <path d="M11.5712 11.9558L0.0170019 23.7933H6.19275L17.7469 11.9558L6.19275 0.118164H0L11.5712 11.9558Z" fill="#4DE564"/>
  <path d="M98.2355 0.119141V23.7942L110.061 11.9568L98.2355 0.119141Z" fill="#4DE564"/>
  <path d="M31.2012 3.49873H25.5345V11.9905H31.2012C32.0335 11.9788 32.844 11.7222 33.5313 11.2528C34.2191 10.7834 34.7535 10.1218 35.068 9.35053C35.3829 8.57927 35.4638 7.73233 35.3015 6.91526C35.1387 6.09819 34.7394 5.34708 34.1535 4.75548C33.7738 4.35441 33.3157 4.03579 32.8082 3.81957C32.3002 3.60335 31.7531 3.49421 31.2012 3.49873ZM21.8698 0.102016H31.2012C32.2359 0.0773003 33.265 0.261476 34.2272 0.643718C35.189 1.026 36.0643 1.59851 36.8002 2.32686C37.5157 3.03037 38.0841 3.86947 38.4724 4.79533C38.8601 5.72115 39.06 6.7151 39.06 7.71912C39.06 8.72313 38.8601 9.71713 38.4724 10.6429C38.0841 11.5688 37.5157 12.4079 36.8002 13.1114C36.0634 13.8375 35.1877 14.4073 34.2255 14.7866C33.2637 15.166 32.235 15.3472 31.2012 15.3193H25.5345V23.811H21.8698V0.118889V0.102016ZM43.926 23.777H47.5908V0.118889H43.926V23.777ZM78.7753 20.3802H91.9581V23.777H75.1105V0.118889H91.636V3.51565H78.843V9.81659H89.0229V13.2133H78.843L78.7753 20.3802ZM71.2421 0H66.7971L59.162 9.81659H57.6011V0H53.9193V23.6751H57.6011V13.8587H59.162L66.7971 23.6751H71.225L62.0295 11.7866L71.2421 0Z" fill="#1a1a2e"/>
  <path d="M33.9839 39.8252L42.908 28.5651H46.064V51.7476H42.4333V34.8659L33.9498 45.4638L25.4668 34.8659V51.7476H21.8191V28.4973H24.9576L33.9839 39.8252Z" fill="#1a1a2e"/>
  <path d="M56.3116 48.4376H69.376V51.8343H52.681V28.4988H69.0535V31.8955H56.3116V38.0267H66.4067V41.3386H56.3116V48.4376Z" fill="#1a1a2e"/>
  <path d="M74.1095 28.4985H82.2363C83.7746 28.4717 85.3023 28.7589 86.7256 29.3427C88.1493 29.927 89.4388 30.7954 90.5161 31.8953C91.6104 32.9533 92.481 34.2211 93.0754 35.6231C93.6699 37.0251 93.9763 38.5327 93.9763 40.0557C93.9763 41.5787 93.6699 43.0864 93.0754 44.4884C92.481 45.8904 91.6104 47.1585 90.5161 48.2166C89.4388 49.316 88.1493 50.1845 86.7256 50.7687C85.3023 51.353 83.7746 51.6402 82.2363 51.6133H74.1265L74.1095 28.4985ZM82.2192 31.8953H77.7402V48.4544H82.2363C83.3055 48.4714 84.3665 48.2678 85.353 47.8557C86.34 47.4436 87.231 46.8321 87.9712 46.0595C89.49 44.4777 90.3384 42.3688 90.3384 40.1746C90.3384 37.9805 89.49 35.8715 87.9712 34.2897C87.231 33.5171 86.34 32.906 85.353 32.494C84.3665 32.0819 83.3055 31.8778 82.2363 31.8953H82.2192Z" fill="#1a1a2e"/>
  <path d="M99.2028 51.7495V28.4988H102.833V51.6813L99.2028 51.7495Z" fill="#1a1a2e"/>
  <path d="M106.651 51.7495L116.254 28.4988H119.885L129.488 51.6813H125.687L123.193 45.5505H113.013L110.52 51.6813L106.651 51.7495ZM118.087 32.6936L114.269 42.3064H121.87L118.087 32.6936Z" fill="#1a1a2e"/>
  <path d="M36.7832 79.9916H21.9039V56.792H25.5516V76.6801H36.7832V79.9916Z" fill="#1a1a2e"/>
  <path d="M40.2106 79.9928L49.8135 56.7932H53.3935L62.9964 79.9928H59.1961L56.7868 73.8616H46.6068L44.1127 79.9928H40.2106ZM51.6966 60.9369L47.8963 70.5497H55.4973L51.6966 60.9369Z" fill="#1a1a2e"/>
  <path d="M77.5365 79.993H67.6114V56.7934H77.0277C78.811 56.7602 80.536 57.4313 81.8294 58.6616C82.4438 59.19 82.9386 59.8437 83.2808 60.5788C83.6229 61.3138 83.8049 62.1133 83.8143 62.9242C83.8245 63.8106 83.6328 64.6875 83.2543 65.4891C82.9948 66.1309 82.6015 66.7095 82.1008 67.1872L81.5068 67.6628L81.8801 67.8665L82.7285 68.5458C83.1261 68.8726 83.4798 69.2493 83.7802 69.6669C84.1224 70.1625 84.4015 70.6986 84.6116 71.2632C84.8545 71.9097 84.9806 72.594 84.9849 73.2844C84.99 74.189 84.8016 75.0844 84.433 75.9102C84.0644 76.7361 83.5237 77.4737 82.847 78.0737C81.3981 79.3879 79.4903 80.0774 77.5365 79.993ZM77.0277 59.9523H71.2421V66.2532H77.0277C77.4453 66.2647 77.8608 66.1914 78.249 66.0367C78.6372 65.882 78.9896 65.6498 79.2853 65.354C79.5806 65.0583 79.8125 64.7054 79.9671 64.3168C80.1214 63.9282 80.1951 63.5123 80.1836 63.0942C80.1977 62.6783 80.1248 62.2641 79.9701 61.8785C79.8154 61.4924 79.5815 61.143 79.284 60.8523C78.9896 60.5557 78.6372 60.3231 78.2494 60.168C77.8612 60.0133 77.4453 59.94 77.0277 59.9523ZM71.2421 76.8341H77.5365C78.289 76.8332 79.0245 76.6099 79.651 76.1923C80.2769 75.7743 80.7657 75.1807 81.0559 74.4856C81.3461 73.7906 81.4245 73.0253 81.2813 72.2855C81.1382 71.5462 80.7798 70.8656 80.2514 70.3291C79.9015 69.9648 79.4792 69.6784 79.0113 69.4879C78.5439 69.2979 78.041 69.2084 77.5365 69.2254H71.2421V76.8341Z" fill="#1a1a2e"/>
</svg>